<?xml version="1.0" standalone="no"?>
<!DOCTYPE svg PUBLIC "-//W3C//DTD SVG 20010904//EN"
 "http://www.w3.org/TR/2001/REC-SVG-20010904/DTD/svg10.dtd">
<svg version="1.0" xmlns="http://www.w3.org/2000/svg"
 width="380.000000pt" height="380.000000pt" viewBox="0 0 380.000000 380.000000"
 preserveAspectRatio="xMidYMid meet">
<metadata>
Created by potrace 1.11, written by Peter Selinger 2001-2013
</metadata>
<g transform="translate(0.000000,380.000000) scale(0.100000,-0.100000)"
fill="#000000" stroke="none">
<path d="M2160 2837 c-89 -42 -158 -143 -185 -271 -13 -64 -13 -177 2 -286 24
-187 -1 -286 -84 -325 -38 -18 -42 -23 -43 -57 0 -26 4 -38 14 -38 7 0 20 -8
27 -17 10 -11 10 -14 2 -9 -7 4 -13 3 -13 -1 0 -5 15 -13 33 -18 65 -20 83
-104 62 -290 -16 -142 -10 -272 14 -344 40 -115 123 -221 202 -256 44 -21 70
-15 64 15 -2 11 1 20 6 20 6 0 7 5 4 10 -4 6 -11 8 -16 5 -5 -4 -10 -1 -10 4
-1 6 -2 15 -3 21 0 5 -18 21 -38 35 -42 28 -68 71 -68 109 0 14 -5 28 -10 31
-7 4 -7 11 -2 18 5 7 8 31 8 55 -1 23 2 42 5 42 3 0 5 24 5 54 -1 30 3 52 8
49 5 -3 6 0 4 8 -3 8 -11 13 -17 11 -7 -1 -10 2 -6 8 3 6 11 8 16 5 5 -4 9 8
9 25 0 22 -4 29 -12 25 -7 -4 -5 0 5 8 18 15 18 15 0 20 -15 4 -15 5 -1 6 14
1 15 6 8 30 -4 16 -6 32 -3 35 7 6 -16 96 -28 112 -5 6 -6 14 -2 17 3 4 2 7
-4 7 -6 0 -14 11 -17 24 -3 14 -22 46 -43 72 -35 47 -52 96 -31 91 11 -2 78
78 78 93 0 5 -6 7 -14 4 -8 -3 -16 -1 -19 3 -3 5 6 9 21 9 25 -1 28 4 45 69
10 39 16 85 14 103 -1 17 0 32 4 32 10 0 -2 44 -15 52 -8 5 -7 8 2 8 6 0 12
10 12 23 0 18 -2 19 -10 7 -5 -8 -10 -10 -10 -4 0 5 5 15 12 22 9 9 9 12 -2
12 -13 0 -13 2 0 10 10 6 11 10 3 10 -9 0 -11 11 -7 33 4 21 3 28 -4 19 -6 -9
-8 4 -4 39 3 32 1 50 -5 46 -5 -3 -10 0 -10 8 0 8 4 12 8 9 4 -2 8 15 9 38 3
93 5 108 17 108 7 0 13 5 13 10 0 6 9 20 20 32 10 12 17 25 14 30 -3 5 -2 8 3
7 4 -1 20 1 36 5 21 7 27 14 27 37 0 17 -6 32 -15 35 -8 4 -15 12 -15 19 0 29
-25 33 -70 12z m87 -72 c0 -8 -4 -12 -9 -9 -5 3 -6 10 -3 15 9 13 12 11 12 -6z
m-72 -45 c-3 -5 -12 -10 -18 -10 -7 0 -6 4 3 10 19 12 23 12 15 0z m-50 -629
c3 -5 2 -12 -3 -15 -5 -3 -9 1 -9 9 0 17 3 19 12 6z m-21 -61 c-6 -6 -10 -3
-10 10 0 13 4 16 10 10 7 -7 7 -13 0 -20z"/>
<path d="M3333 2843 c-18 -6 -16 -52 1 -59 8 -3 17 -15 20 -27 3 -12 8 -18 11
-15 10 9 54 -32 73 -67 17 -32 22 -177 8 -245 -4 -19 -9 -83 -11 -141 -7 -156
28 -264 115 -358 l31 -33 -39 -42 c-79 -86 -113 -195 -108 -345 3 -58 8 -119
11 -136 13 -62 12 -190 -1 -229 -19 -54 -57 -101 -92 -115 -35 -15 -41 -58
-11 -79 11 -7 16 -18 13 -24 -4 -7 -2 -8 4 -4 7 4 12 2 12 -3 0 -6 6 -11 14
-11 33 0 140 75 131 90 -3 5 1 10 9 13 15 6 46 62 46 83 0 7 5 14 10 16 6 2
11 17 13 35 1 17 5 29 10 26 15 -9 6 10 -10 23 -16 12 -16 13 -1 8 12 -4 18 2
22 23 8 42 5 96 -8 112 -8 11 -8 13 2 7 19 -12 15 35 -5 50 -17 13 -17 14 1 7
11 -3 17 -2 14 3 -4 5 -7 32 -9 59 -1 28 -5 55 -8 60 -3 6 -6 26 -7 46 0 20
-4 41 -8 47 -4 7 -2 12 3 12 6 0 11 4 11 10 0 5 -8 7 -17 3 -17 -5 -17 -5 -1
8 9 8 19 27 22 42 3 16 10 35 17 43 6 8 8 14 3 14 -5 0 -1 5 9 11 9 5 17 19
17 29 0 11 5 17 13 15 6 -3 19 -1 27 5 12 7 12 12 3 21 -9 9 -16 9 -30 -2 -16
-13 -17 -12 -5 3 14 17 52 21 49 5 -1 -5 4 -12 11 -14 8 -3 12 8 12 36 0 31
-4 41 -16 41 -10 0 -14 5 -10 16 4 10 -4 19 -27 29 -60 25 -88 81 -82 167 2
34 -1 46 -9 41 -8 -5 -8 -3 0 8 17 22 22 54 11 74 -7 13 -6 16 3 10 10 -6 12
0 8 24 -2 17 -2 31 2 31 3 0 6 9 7 20 1 11 -2 18 -7 15 -5 -3 -12 -1 -15 5 -4
6 -1 9 7 8 8 -2 13 7 13 27 0 17 4 35 8 42 5 7 -1 21 -12 32 -11 11 -16 23
-11 26 4 3 11 -1 14 -7 3 -7 2 7 -1 32 -3 25 -9 47 -12 50 -3 3 -7 14 -9 25
-2 11 -16 47 -32 81 -60 123 -167 212 -227 187z m257 -1143 c0 -5 -5 -10 -11
-10 -5 0 -7 5 -4 10 3 6 8 10 11 10 2 0 4 -4 4 -10z m20 -440 c0 -5 -5 -10
-11 -10 -5 0 -7 5 -4 10 3 6 8 10 11 10 2 0 4 -4 4 -10z m-75 -200 c-3 -5 -12
-10 -18 -10 -7 0 -6 4 3 10 19 12 23 12 15 0z m5 -24 c0 -2 -7 -7 -16 -10 -8
-3 -12 -2 -9 4 6 10 25 14 25 6z m-79 -70 c-12 -15 -54 -18 -45 -4 3 4 11 5
18 2 8 -3 17 -1 21 5 3 6 9 11 12 11 3 0 0 -6 -6 -14z"/>
<path d="M605 2702 c-11 -2 -23 -9 -27 -16 -4 -6 -8 -355 -8 -776 l0 -766 23
-19 c12 -11 25 -19 29 -17 5 1 7 -3 5 -9 -3 -16 81 -15 96 0 15 15 20 164 5
155 -7 -5 -8 -2 -2 7 15 24 16 60 2 77 -10 12 -10 14 -1 8 10 -5 12 3 11 33
-1 24 -5 38 -11 34 -6 -4 -7 -1 -1 8 15 24 16 60 2 77 -11 13 -11 14 0 8 10
-6 13 -1 10 20 -2 18 -8 28 -16 26 -8 -1 -11 2 -7 8 3 6 11 8 16 5 14 -9 11
19 -3 34 -9 10 -10 12 -1 7 9 -5 11 9 10 54 -2 34 1 66 5 73 5 7 8 2 8 -13 0
-14 7 -57 15 -96 8 -39 17 -88 20 -110 4 -21 8 -46 10 -54 2 -8 7 -31 10 -50
16 -101 27 -140 41 -140 8 0 14 -8 14 -18 0 -14 8 -19 29 -20 33 -1 39 8 37
55 -1 17 2 29 7 26 4 -2 7 6 8 19 0 13 2 30 4 38 11 52 17 88 19 110 1 14 6
31 10 38 7 11 1 16 -17 13 -5 -1 -6 3 -2 9 3 6 10 8 15 5 16 -10 17 20 1 33
-14 11 -14 11 1 6 13 -4 16 -1 13 15 -2 12 -1 21 3 21 4 0 9 12 10 27 1 14 4
29 7 31 3 3 5 -114 5 -260 l0 -264 36 -40 c20 -21 34 -31 31 -22 -4 10 -2 20
4 23 5 4 9 3 8 -2 -4 -21 3 -28 26 -28 14 0 25 3 25 6 0 4 8 6 18 5 15 -1 17
9 18 77 0 42 3 80 6 83 4 3 2 19 -2 35 -5 17 -5 31 1 35 5 3 7 10 3 15 -7 12
-8 388 -1 395 3 3 1 19 -3 35 -5 17 -5 31 1 35 5 3 7 10 3 15 -7 12 -8 388 -1
395 3 3 1 19 -3 35 -5 17 -5 31 1 35 5 3 7 10 3 15 -3 5 -5 71 -5 147 2 204 2
202 -11 202 -5 0 -13 11 -18 25 -5 14 -13 25 -17 26 -5 0 -31 1 -59 2 l-52 2
-11 -50 c-10 -50 -35 -194 -46 -270 -4 -22 -8 -47 -10 -55 -3 -8 -16 -80 -30
-160 -14 -80 -27 -156 -30 -170 -3 -14 -7 -43 -10 -64 -3 -22 -6 -40 -8 -42
-1 -1 -11 8 -22 19 -11 11 -14 16 -6 12 11 -7 13 -2 7 26 -4 19 -9 49 -12 68
-3 19 -10 42 -17 50 -10 12 -9 13 2 6 11 -6 13 -4 8 9 -4 9 -12 46 -18 81 -8
40 -16 62 -23 58 -8 -4 -8 -3 0 6 7 8 7 29 -3 74 -18 78 -20 94 -22 135 0 18
-5 31 -9 28 -5 -3 -7 11 -6 30 2 19 -1 34 -5 34 -5 0 -6 12 -3 26 3 15 1 24
-4 21 -5 -3 -9 13 -10 35 -1 22 -6 43 -11 47 -5 3 -12 14 -16 24 -3 9 -17 17
-29 18 -13 0 -30 2 -38 3 -8 1 -24 0 -35 -2z m402 -995 c0 -8 -6 -14 -14 -14
-9 0 -10 4 -2 14 6 7 12 13 14 13 1 0 2 -6 2 -13z m-52 -247 c-3 -5 -12 -10
-18 -10 -7 0 -6 4 3 10 19 12 23 12 15 0z m-225 -260 c0 -5 -5 -10 -11 -10 -5
0 -7 5 -4 10 3 6 8 10 11 10 2 0 4 -4 4 -10z"/>
<path d="M1244 2701 c-10 -2 -22 -8 -26 -15 -4 -6 -8 -356 -8 -778 0 -622 2
-769 13 -775 7 -4 21 -19 30 -33 11 -15 17 -19 17 -10 0 9 3 11 8 5 9 -13 52
-15 52 -3 0 5 5 6 11 2 7 -4 40 -7 75 -8 47 -1 63 2 60 11 -3 7 -1 15 5 18 5
4 9 3 8 -2 -4 -22 4 -28 36 -28 24 0 34 4 31 12 -3 7 -1 15 5 18 5 4 9 3 8 -2
-1 -4 -1 -12 0 -18 1 -12 121 -14 121 -2 0 5 5 5 12 1 22 -14 93 -10 106 6 7
8 11 11 10 5 -2 -5 2 -10 7 -10 5 0 9 3 8 7 -2 5 2 7 8 5 6 -1 14 4 17 12 3 9
0 11 -8 6 -9 -6 -11 -4 -5 6 5 7 10 23 11 35 2 17 -2 21 -14 17 -14 -4 -15 -3
-2 6 23 16 21 99 -3 141 -11 19 -22 37 -24 40 -3 2 -86 5 -186 5 -100 1 -188
4 -195 9 -7 4 -11 15 -8 23 4 9 1 23 -6 31 -10 12 -10 14 0 8 7 -4 12 -1 12 9
0 10 -5 13 -12 9 -7 -5 -8 -3 -2 7 13 21 11 42 -6 64 -14 18 -14 19 2 7 14
-11 16 -9 15 25 -1 21 -6 41 -12 45 -6 5 -5 8 3 8 14 0 12 61 -3 72 -6 5 -5 8
2 8 17 0 11 53 -8 77 -13 16 -12 17 4 4 20 -15 23 -2 5 18 -10 11 -10 13 0 7
7 -5 12 -1 12 9 0 10 -5 13 -12 9 -7 -5 -8 -3 -2 7 13 21 11 42 -6 64 -14 18
-14 19 3 6 20 -15 23 -2 5 18 -10 11 -10 13 0 7 7 -5 12 -1 12 9 0 10 -5 13
-12 9 -7 -5 -8 -3 -2 7 13 21 11 42 -6 64 -14 18 -14 19 2 7 14 -11 16 -9 15
25 -1 21 -6 41 -12 45 -6 5 -5 8 3 8 14 0 12 61 -3 72 -6 5 -5 8 2 8 17 0 11
53 -8 77 -13 16 -12 17 4 4 20 -15 23 -2 5 18 -10 11 -10 13 0 7 7 -5 12 -1
12 9 0 10 -5 13 -12 9 -7 -5 -8 -3 -2 7 13 21 11 42 -6 64 -14 18 -14 19 3 6
20 -15 23 -2 5 18 -10 11 -10 13 0 7 7 -5 12 -1 12 9 0 10 -5 13 -12 9 -7 -5
-8 -3 -2 7 13 21 11 42 -6 64 -14 18 -14 19 2 7 14 -11 16 -9 14 22 -2 19 -9
43 -17 53 -13 16 -12 17 4 4 20 -15 23 -2 5 18 -10 11 -10 13 0 7 7 -5 12 -1
12 9 0 10 -5 13 -12 9 -7 -4 -8 -3 -4 5 4 6 -4 25 -18 43 -22 28 -30 32 -78
32 -30 1 -63 -1 -74 -3z m599 -1456 c-3 -9 -8 -14 -10 -11 -3 3 -2 9 2 15 9
16 15 13 8 -4z m-182 -138 c-10 -9 -11 -8 -5 6 3 10 9 15 12 12 3 -3 0 -11 -7
-18z"/>
<path d="M321 2687 c-8 -10 -11 -228 -11 -758 0 -526 -4 -755 -12 -782 -16
-52 -46 -76 -104 -83 -60 -7 -75 -18 -70 -53 3 -14 8 -53 12 -86 5 -33 9 -63
10 -67 1 -5 2 -12 3 -17 0 -5 10 -12 21 -16 11 -3 19 -12 17 -18 -3 -19 88
-20 141 -2 68 23 144 98 127 124 -3 7 0 8 10 5 9 -4 15 -3 13 2 -1 5 6 30 16
56 10 26 16 54 13 63 -4 8 -1 15 5 15 6 0 5 6 -3 17 -8 10 -9 14 -2 10 7 -5
12 -1 12 10 0 10 2 35 4 56 3 31 1 37 -12 32 -14 -5 -14 -4 0 7 17 14 21 103
5 127 -6 10 -6 12 3 7 16 -10 13 133 -3 153 -8 12 -8 13 2 7 10 -6 13 7 11 66
-1 40 -7 79 -13 87 -8 12 -8 13 2 7 10 -6 13 7 11 66 -1 40 -7 79 -13 87 -8
11 -8 13 2 7 9 -5 12 6 12 44 0 38 -3 49 -12 44 -10 -6 -10 -4 0 8 16 19 14
116 -2 137 -8 11 -8 13 2 7 9 -5 12 6 12 44 0 38 -3 49 -12 44 -10 -6 -10 -4
0 7 14 15 17 93 3 84 -5 -3 -13 -1 -16 5 -4 6 -1 9 7 8 9 -2 14 10 16 36 2 23
0 36 -7 32 -5 -4 -13 -2 -16 4 -4 6 -1 9 7 8 8 -2 14 9 16 31 3 25 0 31 -10
25 -11 -6 -11 -5 0 8 16 19 14 116 -2 137 -8 11 -8 13 2 7 9 -5 12 7 12 48 0
31 -3 56 -7 56 -5 0 -16 14 -25 30 -17 29 -19 30 -91 30 -50 0 -78 -4 -86 -13z
m149 -1711 c0 -2 -8 -10 -17 -17 -16 -13 -17 -12 -4 4 13 16 21 21 21 13z"/>
<path d="M2494 2401 c-2 -2 -4 -67 -4 -143 0 -76 -3 -138 -7 -139 -5 -1 -24
-2 -43 -3 -50 -3 -78 -22 -88 -58 -4 -17 -7 -109 -7 -204 1 -165 2 -174 25
-207 13 -20 28 -33 32 -31 4 3 8 -1 8 -9 0 -8 9 -17 20 -20 11 -3 20 -1 20 3
0 4 9 6 21 3 12 -4 25 0 30 8 6 10 9 10 9 2 0 -16 69 -14 72 1 4 31 3 43 -3
69 -5 16 -4 25 2 22 16 -11 10 7 -8 21 -16 13 -16 14 -1 8 15 -5 16 -2 8 25
-5 19 -5 29 1 26 16 -11 10 7 -8 21 -16 13 -16 14 -1 8 15 -5 16 -2 8 25 -5
19 -5 29 1 26 16 -11 10 7 -8 21 -16 13 -16 14 -1 8 15 -5 16 -2 8 25 -5 19
-5 29 1 26 16 -11 10 7 -8 21 -16 13 -16 14 -1 8 15 -5 16 -2 8 25 -5 19 -5
29 1 26 16 -11 10 7 -8 21 -16 13 -16 14 -1 8 15 -5 16 -2 8 25 -5 19 -5 29 1
26 16 -11 10 7 -8 21 -16 13 -16 14 -1 8 15 -5 16 -2 8 25 -5 19 -5 29 1 26
16 -11 10 7 -8 21 -16 13 -16 14 -1 8 15 -5 16 -2 8 25 -5 19 -5 29 1 26 16
-11 10 7 -8 21 -16 13 -16 14 -1 8 15 -5 16 -2 8 25 -5 19 -5 29 1 26 14 -9
11 5 -5 20 -7 8 -16 11 -19 8 -4 -3 -4 5 -2 19 4 21 1 24 -26 23 -17 0 -33 -2
-35 -4z m-4 -545 l0 -154 -25 -4 c-28 -6 -29 0 -26 81 2 33 -1 41 -11 35 -10
-6 -10 -4 -2 7 5 8 10 46 10 84 -1 71 13 105 41 105 10 0 13 -36 13 -154z"/>
<path d="M2713 2105 c-14 -11 -16 -41 -16 -233 l0 -221 29 -30 c27 -29 29 -30
48 -13 20 16 20 16 7 0 -12 -17 -9 -18 39 -18 36 0 60 6 74 18 20 16 20 16 7
0 -11 -15 -11 -18 2 -18 17 0 35 45 29 73 -2 9 -9 15 -15 11 -7 -3 -4 1 6 9
18 15 18 15 0 20 -16 4 -16 5 -1 6 11 1 15 6 12 16 -4 8 -10 13 -14 10 -4 -3
-10 8 -13 24 -5 22 -11 27 -29 25 -13 -1 -26 -3 -30 -3 -5 -1 -8 -21 -8 -45 0
-40 -2 -44 -21 -41 -30 6 -31 7 -32 62 0 26 -5 51 -11 55 -6 4 5 6 24 3 19 -2
40 1 47 7 7 6 13 6 13 1 0 -5 9 -9 20 -9 11 0 20 5 20 11 0 5 4 4 9 -4 13 -20
19 -1 21 64 4 140 0 169 -25 199 -22 28 -29 30 -100 31 -45 1 -82 -3 -92 -10z
m127 -139 c0 -38 -3 -44 -24 -48 -27 -5 -35 12 -27 65 2 21 9 27 27 27 22 0
24 -4 24 -44z"/>
<path d="M3030 2095 c0 -12 5 -47 10 -76 13 -68 18 -94 36 -199 26 -154 35
-188 50 -194 7 -3 14 -15 14 -26 0 -12 5 -18 10 -15 6 4 8 10 5 15 -3 5 -1 12
5 15 6 4 9 1 8 -6 -2 -7 5 -15 15 -17 16 -3 21 8 20 46 -1 6 3 12 7 12 4 0 7
20 7 44 -1 24 1 42 6 39 4 -2 7 3 7 12 0 9 -4 14 -9 10 -5 -3 -13 -1 -16 5 -4
6 -3 10 2 9 19 -3 30 2 30 14 0 6 4 35 8 62 4 28 9 61 10 75 1 14 6 33 10 42
8 21 -2 41 -17 32 -7 -4 -8 -2 -4 4 4 6 14 8 22 5 14 -5 15 -3 4 16 -6 13 -9
25 -6 29 3 3 6 -1 6 -9 0 -12 2 -12 10 1 12 20 -9 47 -22 28 -6 -8 -7 -2 -5
17 4 29 3 31 -29 31 -31 0 -34 -3 -40 -36 -3 -19 -10 -57 -15 -83 -5 -26 -10
-62 -10 -80 -1 -18 -3 -24 -6 -14 -2 9 -8 15 -12 13 -4 -3 -6 14 -6 37 1 23
-3 45 -9 49 -8 5 -7 8 1 8 15 0 4 40 -11 40 -6 0 -6 4 3 9 9 6 10 11 2 15 -6
4 -11 4 -12 -1 -1 -4 -4 3 -8 17 -5 19 -14 25 -39 26 -27 1 -32 -2 -32 -21z
m193 -290 c-3 -9 -8 -14 -10 -11 -3 3 -2 9 2 15 9 16 15 13 8 -4z"/>
</g>
</svg>
